<svg version="1.1" xmlns="http://www.w3.org/2000/svg" xmlns:xlink="http://www.w3.org/1999/xlink" x="0px" y="0px" width="512px"
	 height="512px" viewBox="0 0 512 512" enable-background="new 0 0 512 512" xml:space="preserve">
<g id="bg_flat">
	<g>
		<path fill="#FF4981" d="M0,432c0,44.183,35.817,80,80,80h352c44.183,0,80-35.817,80-80V80c0-44.183-35.817-80-80-80H80
			C35.817,0,0,35.817,0,80V432z"/>
	</g>
</g>
<g id="flower">
	<path fill="#FFFFFF" d="M251.097,154.597c13.344,27.792-13.337,81.163,32.244,86.718c-6.665,10.008-28.9,10.008-42.245,5.563
		c-17.79-4.445-33.354-20.017-40.027-36.689c-12.229-30.021,5.84-76.854-13.343-98.948
		C215.524,111.24,242.206,129.029,251.097,154.597L251.097,154.597z"/>
	<path fill="#FFFFFF" d="M329.375,112.24c-22.236,29.039,1.383,70.731-12.509,104.085c-4.863,11.125-11.954,17.091-20.845,19.325
		c-12.235,3.336-22.935-0.563-30.018-10.016c-9.59-14.169-8.2-64.893,7.782-87.826C286.986,119.047,307.139,111.125,329.375,112.24
		L329.375,112.24z"/>
	<path fill="#FFFFFF" d="M259.414,160.367c3.26-20.387,5.76-31.089,20.435-40.062c0,0-3.313-17.119-20.435-26.092
		c-17.935,9.786-22.069,26.092-22.069,26.092C252.02,129.278,256.153,139.979,259.414,160.367L259.414,160.367z"/>
	<path fill="#FFFFFF" d="M177.076,252.668c0.781-0.228,0.866,0.483,0.919,1.242c13.721,23.265,37.711,33.039,54.285,55.846
		c12.857,17.695,22.198,36.696,23.003,73.225C227.956,343.475,176.458,332.958,177.076,252.668z"/>
	<path fill="#FFFFFF" d="M335.748,259.684c1.304,21.542-7.68,40.577-16.895,51.664c-12.267,14.76-31.583,20.991-42.239,38.962
		c0.274-37.348,16.423-54.063,38.016-69.452C322.971,274.912,332.849,270.195,335.748,259.684z"/>
	<ellipse fill="#FFFFFF" cx="265.5" cy="416.167" rx="7.5" ry="2.75"/>
	<path fill="#FFFFFF" d="M265.5,254.375c-5.507,0-7.492-1.375-7.492-1.375H258v163h15V253h-0.008
		C273,253,267.938,254.375,265.5,254.375z"/>
</g>
</svg>
